# xmcd
#
# Track frame offsets: 
#        150
#        17147
#        32369
#        47943
#        66436
#        83599
#        101906
#        119166
#        139009
#        155880
#        174121
#        192660
#        215214
#        234380
#
# Disc length: 3344 seconds
#
# Revision: 0
# Processed by: cddbd v1.5.2PL0 Copyright (c) Steve Scherf et al.
# Submitted via: ExactAudioCopy v0.95b3
#
DISCID=ce0d0e0e
DTITLE=Les Deesses - Saveur Exotique
DYEAR=1900
DGENRE=
TTITLE0=Ensemble
TTITLE1=Saveur Exotique (Feat. Myna Menday)
TTITLE2=On A Change (Remix)
TTITLE3=Au Bord De L'agonie
TTITLE4=Ca C'est Bon  (Feat. DJ Caloudji and Najin)
TTITLE5=Danse Avec Moi  (Feat. Papa Tank)
TTITLE6=Seule
TTITLE7=Tous Les Memes
TTITLE8=Oye Amor (Feat. Kaysha)
TTITLE9=Confidence
TTITLE10=Laissez Aller (Feat. Ben J (Neg' Marrons))
TTITLE11=Cacher
TTITLE12=A Quoi Tu Penses ? (Feat. Kamnouze)
TTITLE13=On A Change (Feat. Daddy Mory)
EXTD=
EXTT0=
EXTT1=
EXTT2=
EXTT3=
EXTT4=
EXTT5=
EXTT6=
EXTT7=
EXTT8=
EXTT9=
EXTT10=
EXTT11=
EXTT12=
EXTT13=
PLAYORDER=
